<svg xmlns="http://www.w3.org/2000/svg" width="516" height="705" viewBox="0 0 516 705" fill="none">
<g clip-path="url(#clip0_2333_29677)">
<rect width="516" height="705" rx="24" fill="#041D31"/>
<g style="mix-blend-mode:overlay">
<path d="M257.25 490L-5 286.584V-33H520V286.584L257.25 490Z" fill="url(#paint0_linear_2333_29677)"/>
</g>
<g style="mix-blend-mode:overlay" opacity="0.5">
<path d="M-15.6307 391.884L215.977 571.158L215.979 832.133L-171.998 584.304L-15.6307 391.884Z" fill="url(#paint1_linear_2333_29677)"/>
</g>
<g style="mix-blend-mode:overlay" opacity="0.5">
<path d="M530.986 391.884L299.378 571.158L299.377 832.133L687.354 584.304L530.986 391.884Z" fill="url(#paint2_linear_2333_29677)"/>
</g>
<g style="mix-blend-mode:overlay" opacity="0.5">
<path d="M-15.6327 499.488L215.976 678.762L215.977 939.738L-172 691.908L-15.6327 499.488Z" fill="url(#paint3_linear_2333_29677)"/>
</g>
<g style="mix-blend-mode:overlay" opacity="0.5">
<path d="M530.988 499.488L299.38 678.762L299.379 939.738L687.356 691.908L530.988 499.488Z" fill="url(#paint4_linear_2333_29677)"/>
</g>
<path d="M39 37H160.943L175.377 62H253.023H334.65L349.582 37H477" stroke="url(#paint5_linear_2333_29677)" stroke-width="2"/>
<path d="M477 661.5H354.5L340 636H262H180L165 661.5H37" stroke="url(#paint6_linear_2333_29677)" stroke-width="2"/>
<path d="M475 36L475 210.006L449 230.602V341.398V457.875L475 479.182L475 661" stroke="url(#paint7_linear_2333_29677)" stroke-width="2"/>
<path d="M39 661L39 486.716L65 466.086L65 355.114L65 238.45L39 217.109L39 35" stroke="url(#paint8_linear_2333_29677)" stroke-width="2"/>
<path d="M301.421 237.719H292.785L299.883 246.923C299.883 246.923 304.115 250.734 310.59 255.419C310.59 255.419 310.59 252.125 307.138 246.923C304.935 243.604 301.421 237.719 301.421 237.719Z" fill="#1C1C1C"/>
<path d="M218.592 293.62L188.965 301.094C192.531 311.505 201.215 320.766 196.539 322.786C191.234 325.078 180.1 314.926 171 314.624C151.038 313.96 141.088 315.823 127.863 307.726C126.754 308.948 125.455 309.768 124.626 310.963C124.626 310.963 130.302 313.111 134.291 314.228C141.209 316.165 145.339 316.956 152.507 317.43C158.919 317.855 162.467 316.869 168.962 318.065C177.785 319.688 177.797 320.414 190.938 326.335C194.416 327.902 200.007 325.612 201.957 322.332C203.431 319.852 200.133 315.321 197.927 310.594C196.699 307.961 194.413 304.035 194.413 304.035L214.09 299.183C214.09 299.183 218.836 310.387 223.279 316.731C230.329 326.797 246.654 337.535 246.654 337.535C251.361 337.354 254.585 337.211 254.585 337.211C254.585 337.211 243.559 327.861 234.001 320.717C230.637 318.203 227.736 315.569 224.613 310.575C220.539 304.062 218.592 293.62 218.592 293.62Z" fill="#1C1C1C"/>
<path d="M140.446 342.255C118.313 336.852 111.596 333.697 113.949 330.298C113.949 330.298 100.831 346.469 142.661 353.466C162.376 356.764 178.565 359.184 190.938 360.76C191.29 358.113 191.345 356.596 190.938 353.775C189.37 353.646 187.921 353.612 184.594 352.869C179.373 351.703 177.389 349.058 173.717 348.207C161.746 345.433 140.446 342.255 140.446 342.255Z" fill="#252523"/>
<path d="M113.949 330.298C111.596 333.697 118.313 336.852 140.446 342.255C140.446 342.255 161.746 345.433 173.717 348.207C177.389 349.058 179.373 351.703 184.594 352.869C187.921 353.612 189.37 353.646 190.938 353.775C191.83 353.849 192.761 353.954 194.098 354.239C195.836 354.61 197.562 354.841 199.696 354.986C203.124 355.219 206.9 355.227 208.173 355.227C209.734 355.227 214.886 353.273 217.31 352.318C218.094 352.01 218.592 351.806 218.592 351.806L225.893 352.141L238.119 352.701L239.396 352.729L250.691 352.971L257.646 353.12L262.017 355.412L263.705 356.296H273.551H285.423L286.154 355.646C293.893 355.329 300.433 355.141 306.576 354.809C308.744 354.692 310.862 354.557 312.966 354.393C321.032 353.762 323.935 351.633 323.935 351.633C323.94 351.633 323.949 351.633 323.96 351.633C324.09 351.633 324.598 351.637 325.429 351.642C325.638 351.644 325.866 351.645 326.115 351.647C328.288 351.66 331.949 351.679 336.507 351.686C336.565 351.686 336.622 351.686 336.68 351.686C342.6 351.695 350.007 351.685 357.621 351.617L357.625 351.617C360.803 351.589 364.017 351.55 367.175 351.499C367.393 351.496 367.611 351.492 367.829 351.489C373.34 351.397 378.657 351.265 383.284 351.08C383.413 351.075 383.541 351.07 383.669 351.064C385.83 350.976 387.835 350.875 389.631 350.761C389.674 350.758 389.716 350.755 389.759 350.752C391.293 350.654 392.673 350.545 393.865 350.425C399.284 349.881 400.56 349.479 400.802 349.268C400.787 349.161 400.777 349.103 400.777 349.103L400.458 338.134C400.458 338.134 356.853 338.779 328.952 340.175C308.936 341.177 295.683 341.851 275.738 343.82C250.072 346.354 241.634 346.288 220.222 346.55C168.962 347.178 131.119 338.857 113.949 330.298Z" fill="#D3D3D3"/>
<path d="M119.255 323.87C117.459 322.656 114.787 326.661 113.949 330.298C131.119 338.857 168.962 347.178 220.222 346.55C241.634 346.288 250.072 346.354 275.738 343.82C295.683 341.851 308.936 341.177 328.952 340.175C356.853 338.779 400.458 338.134 400.458 338.134C400.605 333.423 400.396 331.218 398.367 329.729L326.476 333.47L254.585 337.211C254.585 337.211 251.361 337.354 246.654 337.535C238.727 337.84 219.366 338.737 211.36 338.768C178.966 338.895 127.863 331.517 119.255 323.87Z" fill="#DADADA"/>
<path fill-rule="evenodd" clip-rule="evenodd" d="M323.96 351.633C323.949 351.633 323.94 351.633 323.935 351.633C323.935 351.633 321.032 353.762 312.966 354.393C310.862 354.557 308.744 354.692 306.576 354.809C300.433 355.141 293.893 355.329 286.154 355.646L285.423 356.296C285.627 359.077 285.576 360.135 285.423 361.838C305.795 361.554 327.823 361.231 347.053 360.871C368.87 360.463 387.085 360.008 395.195 359.509C396.54 359.426 397.607 359.342 398.367 359.257C401.997 358.849 400.981 350.549 400.802 349.268C400.56 349.479 399.284 349.881 393.865 350.425C392.673 350.545 391.293 350.654 389.759 350.752C389.716 350.755 389.674 350.758 389.631 350.761C387.835 350.875 385.83 350.976 383.669 351.064C383.541 351.07 383.413 351.075 383.284 351.08C378.657 351.265 373.34 351.397 367.829 351.489C367.611 351.492 367.393 351.496 367.175 351.499C364.017 351.55 360.803 351.589 357.625 351.617L357.621 351.617C350.007 351.685 342.6 351.695 336.68 351.686C336.622 351.686 336.565 351.686 336.507 351.686C331.949 351.679 328.288 351.66 326.115 351.647C325.866 351.645 325.638 351.644 325.429 351.642C324.598 351.637 324.09 351.633 323.96 351.633Z" fill="#2B2B2B"/>
<path d="M262.017 355.412L257.646 353.12L250.691 352.971L239.396 352.729C239.604 356.885 239.6 359.015 239.396 362.48C251.63 362.296 267.915 362.082 285.423 361.838C285.576 360.135 285.627 359.077 285.423 356.296H273.551H263.705L262.017 355.412Z" fill="#292929"/>
<path d="M217.754 362.932C219.284 362.812 227.389 362.661 239.396 362.48C239.6 359.015 239.604 356.885 239.396 352.729L238.119 352.701L225.893 352.141L218.592 351.806C218.592 351.806 218.094 352.01 217.31 352.318C217.893 357.009 217.959 359.29 217.754 362.932Z" fill="#1C1C1C"/>
<path d="M208.173 362.628C208.25 360.295 208.266 358.79 208.173 355.227C206.9 355.227 203.124 355.219 199.696 354.986C199.96 357.923 199.86 359.438 199.588 361.855C202.574 362.181 205.775 362.437 208.107 362.623L208.173 362.628Z" fill="#1C1C1C"/>
<path d="M217.31 352.318C214.886 353.273 209.734 355.227 208.173 355.227C208.266 358.79 208.25 360.295 208.173 362.628C212.623 362.983 215.833 363.083 217.754 362.932C217.959 359.29 217.893 357.009 217.31 352.318Z" fill="#1C1C1C"/>
<path d="M199.696 354.986C197.562 354.841 195.836 354.61 194.098 354.239C192.761 353.954 191.83 353.849 190.938 353.775C191.345 356.596 191.29 358.113 190.938 360.76C194.288 361.186 196.804 361.551 199.588 361.855C199.86 359.438 199.96 357.923 199.696 354.986Z" fill="#1C1C1C"/>
<path d="M247.823 281.013C261.733 278.962 261.997 277.584 270.479 273.643L269.337 271.479L263.101 275C263.101 275 259.868 277.04 257.527 277.492C252.667 278.43 246.093 279.414 246.093 279.414C246.093 279.414 240.993 280.16 237.658 281.013C230.753 282.778 221.149 289.491 221.149 289.491C221.149 289.491 219.204 291.006 217.75 291.548C206.978 295.562 190.207 299.183 190.207 299.183C190.207 299.183 186.786 295.562 186.786 293.428C186.786 292.11 188.7 290.648 188.7 290.648L190.207 289.235C190.122 288.394 190.138 287.551 190.207 286.796C190.207 286.796 187.906 287.501 186.786 288.634C185.665 289.766 184.579 293.206 184.879 295.562C186.188 297.785 186.432 298.611 188.965 301.094L218.592 293.62C218.592 293.62 220.868 292.037 223.279 290.648C230.826 286.301 233.913 283.063 247.823 281.013Z" fill="#1C1C1C"/>
<path d="M264.066 287.184C264.06 287.341 261.548 308.995 277.742 308.203C288.256 307.689 289.822 306.638 299.883 303.401L302.91 302.316L270.479 273.643C261.997 277.584 261.733 278.962 247.823 281.013C233.913 283.063 230.826 286.301 223.279 290.648C220.868 292.037 218.592 293.62 218.592 293.62C218.592 293.62 220.539 304.062 224.613 310.575C227.736 315.569 230.637 318.203 234.001 320.717C243.559 327.861 254.585 337.211 254.585 337.211L326.476 333.47C327.699 322.332 317.699 315.42 311.778 310.156L275.738 324.347C275.738 324.347 257.646 331.636 248.38 316.996C242.718 308.048 256.235 291.225 264.066 287.184Z" fill="#DADADA"/>
<path d="M394.484 278.157C394.484 278.157 393.734 281.028 390.431 282.094C381.293 285.043 364.949 289.729 364.949 289.729L398.586 302.498C398.586 302.498 397.179 285.904 395.849 280.268C395.729 279.762 396.847 280.542 396.725 280.037C395.286 279.821 394.626 279.554 394.484 278.157Z" fill="#C4C1C8"/>
<path d="M284.516 244.816C310.26 267.061 319.902 274.829 350.082 285.663C350.082 285.663 370.22 280.121 382.562 275.577C384.011 275.044 386.022 273.664 386.022 273.664L373.008 266.754C360.935 274.22 355.396 273.756 353.223 274.22C337.906 274.272 330.218 271.368 317.537 262.847C317.537 262.847 295.747 248.441 288.268 244.816C286.296 243.86 284.516 244.816 284.516 244.816Z" fill="#E1E1E3"/>
<path d="M373.008 266.754C380.464 262.009 384.533 259.128 391.477 253.374C390.663 249.789 388.094 249.306 385.03 251.879C383.109 253.491 369.451 266.754 357.695 270.318C357.695 270.318 345.703 274.685 329.16 266.711C322.224 263.368 315.707 259.121 310.59 255.419C304.115 250.734 299.883 246.923 299.883 246.923L299.418 247.872C299.418 247.872 295.576 245.095 292.785 243.989C290.219 242.972 285.915 242.328 285.915 242.328L282.025 243.239L284.516 244.816C284.516 244.816 286.296 243.86 288.268 244.816C295.747 248.441 317.537 262.847 317.537 262.847C330.218 271.368 337.906 274.272 353.223 274.22C355.396 273.756 360.935 274.22 373.008 266.754Z" fill="#191919"/>
<path d="M350.082 285.663C319.902 274.829 310.26 267.061 284.516 244.816C288.932 258.559 301.525 265.526 313.446 273.02C324.373 279.889 342.912 287.984 342.912 287.984L350.082 285.663Z" fill="#D4D4D6"/>
<path d="M400.289 306.638C400.289 306.638 400.098 303.517 400.078 302.498H398.586L364.949 289.729L358.598 292.364L400.289 306.638Z" fill="#D9D9DB"/>
<path d="M211.36 278.43C210.448 279.355 209.728 279.91 208.575 280.598C203.894 283.389 204.217 282.336 199.009 283.389C199.009 283.389 199.151 284.138 199.325 285.158C199.455 285.919 199.603 286.831 199.725 287.695C203.27 287.331 205.492 286.894 209.694 285.881C208.86 283.502 210.057 279.751 211.36 278.43Z" fill="#1C1C1C"/>
<path d="M222.81 275.223L218.592 279.314C220.105 278.639 221.121 278.105 223.276 276.838C222.956 275.93 222.81 275.223 222.81 275.223Z" fill="#1C1C1C"/>
<path fill-rule="evenodd" clip-rule="evenodd" d="M184.879 295.562C163.371 300.732 149.712 304.27 127.863 307.726C141.088 315.823 151.038 313.96 171 314.624C180.1 314.926 191.234 325.078 196.539 322.786C201.215 320.766 192.531 311.505 188.965 301.094C186.432 298.611 186.188 297.785 184.879 295.562ZM183.871 311.014C183.156 310.261 184.469 309.133 185.148 309.523C186.555 310.33 184.587 311.768 183.871 311.014ZM180.95 305.716C181.381 305.272 182.219 305.677 182.149 306.293C182.013 307.5 179.958 306.739 180.95 305.716ZM179.958 302.833C180.455 302.625 180.981 303.226 180.742 303.709C180.263 304.679 178.53 303.43 179.958 302.833ZM178.466 300.549C178.384 299.947 177.211 300.113 177.128 300.549C176.928 301.595 178.558 301.226 178.466 300.549ZM176.943 298.973C177.038 299.374 176.518 299.739 176.151 299.488C175.398 298.973 176.784 298.296 176.943 298.973ZM175.236 309.407C176.69 311.014 173.803 311.599 174.045 309.838C174.112 309.348 174.904 309.04 175.236 309.407ZM174.045 307.177C174.288 306.79 173.729 306.231 173.276 306.293C171.484 306.539 172.953 308.915 174.045 307.177ZM172.645 303.663C172.645 302.349 170.861 302.464 170.861 303.709C170.861 304.955 172.645 304.732 172.645 303.663ZM167.816 301.094C167.787 300.734 168.163 300.408 168.516 300.488C168.803 300.552 168.986 300.801 168.962 301.094C168.926 301.54 167.852 301.54 167.816 301.094ZM164.956 302.787C165.104 302.348 164.475 301.995 164.102 302.272C163.118 303.002 164.541 304.017 164.956 302.787ZM165.963 307.1C166.309 305.964 165.172 305.908 164.836 306.654C164.477 307.452 165.752 307.794 165.963 307.1ZM164.102 309.611C163.423 309.178 162.042 309.634 162.641 310.707C163.187 311.683 165.071 310.484 164.102 309.611ZM150.085 306.762C150.03 306.241 150.953 305.887 151.284 306.293C152.055 307.239 150.194 307.801 150.085 306.762ZM144.595 309.715C144.643 309.083 146.186 308.938 146.186 309.715C146.186 310.668 144.51 310.814 144.595 309.715ZM145.648 306.639C145.973 306.364 145.627 305.638 145.218 305.755C144.272 306.024 145.048 307.147 145.648 306.639ZM138.451 309.092C138.838 308.697 138.451 307.716 137.69 308.185C136.769 308.752 137.69 309.869 138.451 309.092ZM153.307 309.899C154.067 309.038 155.024 309.999 154.36 310.853C153.876 311.476 152.689 310.599 153.307 309.899ZM156.982 306.869C157.633 306.741 157.976 307.703 157.543 308.031C156.56 308.776 155.72 307.117 156.982 306.869ZM156.398 303.625C156.833 304.209 155.77 305.109 155.244 304.555C154.66 303.94 155.807 302.833 156.398 303.625ZM161.388 304.901C161.55 305.432 160.64 306.208 160.242 305.309C160.042 304.348 161.227 304.371 161.388 304.901Z" fill="#DFDDE0"/>
<path d="M156.398 303.625C156.833 304.209 155.77 305.109 155.244 304.555C154.66 303.94 155.807 302.833 156.398 303.625Z" fill="#1C1C1C"/>
<path d="M156.982 306.869C157.633 306.741 157.976 307.703 157.543 308.031C156.56 308.776 155.72 307.117 156.982 306.869Z" fill="#1C1C1C"/>
<path d="M162.641 310.707C163.187 311.683 165.071 310.484 164.102 309.611C163.423 309.178 162.042 309.634 162.641 310.707Z" fill="#1C1C1C"/>
<path d="M153.307 309.899C154.067 309.038 155.024 309.999 154.36 310.853C153.876 311.476 152.689 310.599 153.307 309.899Z" fill="#1C1C1C"/>
<path d="M150.085 306.762C150.03 306.241 150.953 305.887 151.284 306.293C152.055 307.239 150.194 307.801 150.085 306.762Z" fill="#1C1C1C"/>
<path d="M144.595 309.715C144.643 309.083 146.186 308.938 146.186 309.715C146.186 310.668 144.51 310.814 144.595 309.715Z" fill="#1C1C1C"/>
<path d="M145.648 306.639C145.973 306.364 145.627 305.638 145.218 305.755C144.272 306.024 145.048 307.147 145.648 306.639Z" fill="#1C1C1C"/>
<path d="M165.963 307.1C166.309 305.964 165.172 305.908 164.836 306.654C164.477 307.452 165.752 307.794 165.963 307.1Z" fill="#1C1C1C"/>
<path d="M161.388 304.901C161.55 305.432 160.64 306.208 160.242 305.309C160.042 304.348 161.227 304.371 161.388 304.901Z" fill="#1C1C1C"/>
<path d="M164.956 302.787C165.104 302.348 164.475 301.995 164.102 302.272C163.118 303.002 164.541 304.017 164.956 302.787Z" fill="#1C1C1C"/>
<path d="M168.516 300.488C168.163 300.408 167.787 300.734 167.816 301.094C167.852 301.54 168.926 301.54 168.962 301.094C168.986 300.801 168.803 300.552 168.516 300.488Z" fill="#1C1C1C"/>
<path d="M174.045 309.838C174.112 309.348 174.904 309.04 175.236 309.407C176.69 311.014 173.803 311.599 174.045 309.838Z" fill="#1C1C1C"/>
<path d="M173.276 306.293C171.484 306.539 172.953 308.915 174.045 307.177C174.288 306.79 173.729 306.231 173.276 306.293Z" fill="#1C1C1C"/>
<path d="M172.645 303.663C172.645 302.349 170.861 302.464 170.861 303.709C170.861 304.955 172.645 304.732 172.645 303.663Z" fill="#1C1C1C"/>
<path d="M178.466 300.549C178.384 299.947 177.211 300.113 177.128 300.549C176.928 301.595 178.558 301.226 178.466 300.549Z" fill="#1C1C1C"/>
<path d="M176.943 298.973C177.038 299.374 176.518 299.739 176.151 299.488C175.398 298.973 176.784 298.296 176.943 298.973Z" fill="#1C1C1C"/>
<path d="M138.451 309.092C138.838 308.697 138.451 307.716 137.69 308.185C136.769 308.752 137.69 309.869 138.451 309.092Z" fill="#1C1C1C"/>
<path d="M183.871 311.014C183.156 310.261 184.469 309.133 185.148 309.523C186.555 310.33 184.587 311.768 183.871 311.014Z" fill="#1C1C1C"/>
<path d="M180.95 305.716C181.381 305.272 182.219 305.677 182.149 306.293C182.013 307.5 179.958 306.739 180.95 305.716Z" fill="#1C1C1C"/>
<path d="M179.958 302.833C180.455 302.625 180.981 303.226 180.742 303.709C180.263 304.679 178.53 303.43 179.958 302.833Z" fill="#1C1C1C"/>
<path d="M223.276 276.838C221.121 278.105 220.105 278.639 218.592 279.314C218.556 280.017 218.409 280.893 218.154 281.817C220.39 281.093 221.647 280.313 223.962 278.43C223.678 277.895 223.451 277.336 223.276 276.838Z" fill="#222222"/>
<path d="M253.551 260.614C253.551 260.614 252.393 263.204 251.56 266.411C252.634 266.622 253.335 266.428 254.605 266.013C253.695 263.65 253.73 261.195 253.551 260.614Z" fill="#1C1C1C"/>
<path d="M282.025 254.308C283.242 253.763 284.259 253.28 284.516 251.971C284.673 251.174 284.166 249.922 284.166 249.922C282.09 252.847 280.637 253.677 277.742 254.308C277.742 254.308 280.498 254.992 282.025 254.308Z" fill="#1C1C1C"/>
<path d="M271.667 259.914C271.667 259.914 273.299 260.87 274.351 260.614C275.779 260.265 276.545 259.046 276.573 257.576C276.589 256.764 275.95 255.592 275.95 255.592C274.992 258.29 274.025 259.192 271.667 259.914Z" fill="#1C1C1C"/>
<path d="M222.225 275.223C221.85 275.223 219.581 274.736 218.369 275.473C215.359 277.303 213.794 277.339 211.36 278.43C210.057 279.751 208.86 283.502 209.694 285.881C209.982 286.701 210.511 287.358 211.36 287.695C214.913 289.109 217.235 285.155 218.154 281.817C218.409 280.893 218.556 280.017 218.592 279.314L222.81 275.223C222.81 275.223 222.956 275.93 223.276 276.838C223.451 277.336 223.678 277.895 223.962 278.43C224.468 279.386 225.155 280.268 226.047 280.598C228.306 281.433 229.91 280.427 231.245 278.43C232.67 276.297 232.575 275.362 232.575 273.001C232.575 270.64 237.658 265.058 237.658 265.058C235.151 265.512 222.061 271.696 222.51 273.824C222.756 274.99 222.601 275.223 222.225 275.223Z" fill="#303030"/>
<path d="M251.56 257.576L246.654 260.614C246.654 260.614 242.171 265.919 242.179 266.411C241.843 267.367 241.61 268.355 241.484 269.326C241.169 271.747 241.515 274.057 242.563 275.473C244.01 277.427 245.988 276.818 247.823 275.223C250.535 272.866 250.727 269.619 251.56 266.411C252.393 263.204 253.551 260.614 253.551 260.614L254.605 256.292L251.56 257.576Z" fill="#383838"/>
<path d="M253.551 255.592C255.651 255.592 254.605 256.292 254.605 256.292L253.551 260.614C253.73 261.195 253.695 263.65 254.605 266.013C254.866 266.692 255.206 267.363 255.651 267.98C257.438 270.46 261.296 272.192 262.548 267.98C263.224 265.705 261.79 262 261.141 259.914C260.491 257.828 261.733 254.308 261.733 254.308L265.005 249.912L264.655 246.923L262.548 249.633C262.548 249.633 259.122 249.957 257.527 251.263C256.621 252.005 256.444 252.741 255.651 253.601C254.884 254.431 252.421 255.592 253.551 255.592Z" fill="#3C3C3C"/>
<path d="M267.545 243.166C266.356 244.455 264.655 246.923 264.655 246.923L265.005 249.912C265.005 249.912 264.937 251.803 265.354 252.901C265.997 254.591 267.281 254.949 268.492 256.292C269.748 257.687 271.667 259.914 271.667 259.914C274.025 259.192 274.992 258.29 275.95 255.592C275.95 255.592 275.408 252.442 273.736 248.472C271.741 243.436 272.241 241.697 275.95 240.514H273.215C270.839 240.738 269.174 241.4 267.545 243.166Z" fill="#303433"/>
<path d="M282.025 243.239L275.95 240.514C272.241 241.697 271.741 243.436 273.736 248.472C276.108 251.94 277.742 254.308 277.742 254.308C280.637 253.677 282.09 252.847 284.166 249.922C284.166 249.922 284 248.663 283.816 247.872C283.378 245.982 282.025 243.239 282.025 243.239Z" fill="#202020"/>
<path d="M199.088 292.332C199.927 291.357 200.027 290.645 199.934 289.491C199.893 288.977 199.817 288.35 199.725 287.695C199.603 286.831 199.455 285.919 199.325 285.158C199.151 284.138 199.009 283.389 199.009 283.389C199.009 281.904 195.517 282.461 194.413 282.705C191.934 283.252 190.584 284.774 190.207 286.796C190.138 287.551 190.122 288.394 190.207 289.235C190.373 290.867 190.919 292.488 192.191 293.428C194.385 295.048 197.31 294.4 199.088 292.332Z" fill="#363732"/>
<path fill-rule="evenodd" clip-rule="evenodd" d="M301.421 237.719H292.785C292.785 237.719 297.261 242.217 295.173 243.166C293.995 243.701 285.915 242.328 285.915 242.328L282.025 243.239L275.95 240.514C275.95 240.514 279.687 236.65 283.217 234.085L293.028 236.281L289.168 233.721L289.837 232.537L290.614 231.998L291.244 232.245H292.785V231.706L293.566 230.845L294.212 231.998H296.15L294.212 228.389C295.174 228.054 295.878 227.911 296.15 228.057C297.511 228.787 301.421 237.719 301.421 237.719Z" fill="#1C1C1C"/>
<path d="M285.054 232.87C284.463 233.215 283.843 233.629 283.217 234.085L293.028 236.281L289.168 233.721L289.837 232.537L290.614 231.998L291.244 232.245H292.785V231.706L293.566 230.845L294.212 231.998H296.15L294.212 228.389C291.856 229.21 287.952 231.182 285.054 232.87Z" fill="#F3F3F0"/>
<path d="M280.448 267.918C277.88 267.918 278.088 263.963 280.448 263.935C283.372 263.901 283.395 267.918 280.448 267.918Z" fill="#080C0B"/>
<path d="M288.307 261.89C286.108 261.089 287.207 257.577 289.252 257.753C292.39 258.023 291.566 263.077 288.307 261.89Z" fill="#080C0B"/>
<path d="M390.681 271.148L390.981 258.076L392.919 257.776L393.403 261.467L393.588 257.93L393.86 259.825L395.487 271.148H395.376H392.919L392.619 267.019V271.148H390.681Z" fill="#A2A2A3"/>
<path fill-rule="evenodd" clip-rule="evenodd" d="M288.307 261.89C286.108 261.089 287.207 257.577 289.252 257.753C292.39 258.023 291.566 263.077 288.307 261.89ZM280.448 267.918C277.88 267.918 278.088 263.963 280.448 263.935C283.372 263.901 283.395 267.918 280.448 267.918Z" fill="#1C1C1C"/>
<path d="M119.255 323.87C127.863 331.517 178.966 338.895 211.36 338.768C219.366 338.737 238.727 337.84 246.654 337.535C246.654 337.535 230.329 326.797 223.279 316.731C218.836 310.387 214.09 299.183 214.09 299.183L194.413 304.035C194.413 304.035 196.699 307.961 197.927 310.594C200.133 315.321 203.431 319.852 201.957 322.332C200.007 325.612 194.416 327.902 190.938 326.335C177.797 320.414 177.785 319.688 168.962 318.065C162.467 316.869 158.919 317.855 152.507 317.43C145.339 316.956 141.209 316.165 134.291 314.228C130.302 313.111 124.626 310.963 124.626 310.963C121.379 315.644 120.089 321.144 119.255 323.87Z" fill="#041D31"/>
<path d="M311.778 310.156C317.699 315.42 327.699 322.332 326.476 333.47L398.367 329.729C399.886 321.327 400.268 316.241 400.289 306.638L358.598 292.364L311.778 310.156Z" fill="#041D31"/>
<path d="M277.742 308.203C261.548 308.995 264.06 287.341 264.066 287.184C256.235 291.225 242.718 308.048 248.38 316.996C257.646 331.636 275.738 324.347 275.738 324.347L311.778 310.156L302.91 302.316L299.883 303.401C289.822 306.638 288.256 307.689 277.742 308.203Z" fill="#F95C16"/>
<path d="M390.431 282.094C393.734 281.028 394.484 278.157 394.484 278.157L386.022 273.664C386.022 273.664 384.011 275.044 382.562 275.577C370.22 280.121 350.082 285.663 350.082 285.663L342.912 287.984L302.91 302.316L311.778 310.156L358.598 292.364L364.949 289.729C364.949 289.729 381.293 285.043 390.431 282.094Z" fill="#F95C16"/>
<path fill-rule="evenodd" clip-rule="evenodd" d="M342.912 287.984C342.912 287.984 324.373 279.889 313.446 273.02C301.525 265.526 288.932 258.559 284.516 244.816L282.025 243.239C282.025 243.239 283.378 245.982 283.816 247.872C284 248.663 284.166 249.922 284.166 249.922C284.166 249.922 284.673 251.174 284.516 251.971C284.259 253.28 283.242 253.763 282.025 254.308C280.498 254.992 277.742 254.308 277.742 254.308C277.742 254.308 276.108 251.94 273.736 248.472C275.408 252.442 275.95 255.592 275.95 255.592C275.95 255.592 276.589 256.764 276.573 257.576C276.545 259.046 275.779 260.265 274.351 260.614C273.299 260.87 271.667 259.914 271.667 259.914C271.667 259.914 269.748 257.687 268.492 256.292C267.281 254.949 265.997 254.591 265.354 252.901C264.937 251.803 265.005 249.912 265.005 249.912L261.733 254.308C261.733 254.308 260.491 257.828 261.141 259.914C264.138 264.993 266.242 267.699 269.337 271.479L270.479 273.643L302.91 302.316L342.912 287.984ZM288.307 261.89C286.108 261.089 287.207 257.577 289.252 257.753C292.39 258.023 291.566 263.077 288.307 261.89ZM280.448 267.918C277.88 267.918 278.088 263.963 280.448 263.935C283.372 263.901 283.395 267.918 280.448 267.918Z" fill="#041D31"/>
<path d="M247.823 275.223C245.988 276.818 244.01 277.427 242.563 275.473C241.515 274.057 241.169 271.747 241.484 269.326C237.947 270.235 235.999 271.039 232.575 273.001C232.575 275.362 232.67 276.297 231.245 278.43C229.91 280.427 228.306 281.433 226.047 280.598C225.155 280.268 224.468 279.386 223.962 278.43C221.647 280.313 220.39 281.093 218.154 281.817C217.235 285.155 214.913 289.109 211.36 287.695C210.511 287.358 209.982 286.701 209.694 285.881C205.492 286.894 203.27 287.331 199.725 287.695C199.817 288.35 199.893 288.977 199.934 289.491C200.027 290.645 199.927 291.357 199.088 292.332C197.31 294.4 194.385 295.048 192.191 293.428C190.919 292.488 190.373 290.867 190.207 289.235L188.7 290.648C188.7 290.648 186.786 292.11 186.786 293.428C186.786 295.562 190.207 299.183 190.207 299.183C190.207 299.183 206.978 295.562 217.75 291.548C219.204 291.006 221.149 289.491 221.149 289.491C221.149 289.491 230.753 282.778 237.658 281.013C240.993 280.16 246.093 279.414 246.093 279.414C246.093 279.414 252.667 278.43 257.527 277.492C259.868 277.04 263.101 275 263.101 275L269.337 271.479C266.242 267.699 264.138 264.993 261.141 259.914C261.79 262 263.224 265.705 262.548 267.98C261.296 272.192 257.438 270.46 255.651 267.98C255.206 267.363 254.866 266.692 254.605 266.013C253.335 266.428 252.634 266.622 251.56 266.411C250.727 269.619 250.535 272.866 247.823 275.223Z" fill="#041D31"/>
<path fill-rule="evenodd" clip-rule="evenodd" d="M393.86 259.825L393.588 257.93L393.403 261.467L392.919 257.776L390.981 258.076L390.681 271.148H392.619V267.019L392.919 271.148H395.376C395.398 271.305 395.419 271.462 395.441 271.617C395.417 271.446 395.394 271.275 395.37 271.102C395.069 268.896 394.747 266.488 394.43 264.105L394.241 262.686L394.241 262.685C394.112 261.714 393.984 260.756 393.86 259.825Z" fill="#1C1C1C"/>
<path d="M391.477 253.374C384.533 259.128 380.464 262.009 373.008 266.754L386.022 273.664L394.484 278.157C394.626 279.554 395.286 279.821 396.725 280.037C396.495 279.081 396.028 275.89 395.481 271.908C395.467 271.812 395.454 271.714 395.441 271.617C395.419 271.462 395.398 271.305 395.376 271.148H392.919L392.619 267.019V271.148H390.681L390.981 258.076L392.919 257.776L393.403 261.467L393.588 257.93L393.86 259.825C393.653 258.269 393.454 256.79 393.273 255.462C393.02 254.45 391.477 253.374 391.477 253.374Z" fill="#041D31"/>
<path d="M89.3934 101.256V119.813C100.691 118.767 110.979 108.877 111.914 97.7705L92.1101 97.7705C90.984 97.7705 89.3934 100.153 89.3934 101.256Z" fill="#F95C16"/>
<path d="M81.4672 97.7412H65.0237C65.9589 108.848 74.931 118.658 86.2287 119.704L86.2286 102.793C85.918 100.055 83.9469 97.7412 81.4672 97.7412Z" fill="#F95C16"/>
<path d="M89.3934 74.0305V87.0991C89.3934 90.55 91.1086 95.0569 94.6307 95.0569H111.914C110.979 83.9501 100.691 75.0764 89.3934 74.0305Z" fill="#F95C16"/>
<path d="M86.2287 90.6663V74.0303C74.931 75.0761 65.9593 83.9501 65.0241 95.0569H84.8283C86.374 95.0569 86.3088 93.2131 86.2502 91.558C86.2393 91.2498 86.2287 90.9482 86.2287 90.6663Z" fill="#F95C16"/>
<path fill-rule="evenodd" clip-rule="evenodd" d="M86.2286 102.793C86.8163 107.975 86.2287 119.704 86.2287 119.704L86.2286 102.793Z" fill="#F95C16"/>
</g>
<defs>
<linearGradient id="paint0_linear_2333_29677" x1="257.5" y1="-33" x2="257.5" y2="490" gradientUnits="userSpaceOnUse">
<stop stop-color="#D9D9D9"/>
<stop offset="1" stop-color="#0A3A61"/>
</linearGradient>
<linearGradient id="paint1_linear_2333_29677" x1="166.226" y1="530.728" x2="5.48316" y2="728.532" gradientUnits="userSpaceOnUse">
<stop stop-color="#D9D9D9"/>
<stop offset="1" stop-color="#041D31"/>
</linearGradient>
<linearGradient id="paint2_linear_2333_29677" x1="349.13" y1="530.728" x2="509.872" y2="728.532" gradientUnits="userSpaceOnUse">
<stop stop-color="#D9D9D9"/>
<stop offset="1" stop-color="#041D31"/>
</linearGradient>
<linearGradient id="paint3_linear_2333_29677" x1="166.224" y1="638.332" x2="5.48121" y2="836.136" gradientUnits="userSpaceOnUse">
<stop stop-color="#D9D9D9"/>
<stop offset="1" stop-color="#041D31"/>
</linearGradient>
<linearGradient id="paint4_linear_2333_29677" x1="349.132" y1="638.332" x2="509.874" y2="836.136" gradientUnits="userSpaceOnUse">
<stop stop-color="#D9D9D9"/>
<stop offset="1" stop-color="#041D31"/>
</linearGradient>
<linearGradient id="paint5_linear_2333_29677" x1="39" y1="49.5" x2="477" y2="49.5" gradientUnits="userSpaceOnUse">
<stop stop-color="#FF9D72"/>
<stop offset="1" stop-color="#083356"/>
</linearGradient>
<linearGradient id="paint6_linear_2333_29677" x1="477" y1="648.75" x2="37" y2="648.75" gradientUnits="userSpaceOnUse">
<stop stop-color="#FF9D72"/>
<stop offset="1" stop-color="#083356"/>
</linearGradient>
<linearGradient id="paint7_linear_2333_29677" x1="462" y1="36" x2="462" y2="661" gradientUnits="userSpaceOnUse">
<stop stop-color="#FF9D72"/>
<stop offset="1" stop-color="#083356"/>
</linearGradient>
<linearGradient id="paint8_linear_2333_29677" x1="52" y1="661" x2="52" y2="35" gradientUnits="userSpaceOnUse">
<stop offset="0.2" stop-color="#FF9D72"/>
<stop offset="1" stop-color="#083356"/>
</linearGradient>
<clipPath id="clip0_2333_29677">
<rect width="516" height="705" rx="24" fill="white"/>
</clipPath>
</defs>
</svg>