<svg xmlns="http://www.w3.org/2000/svg" width="516" height="705" viewBox="0 0 516 705" fill="none">
<g clip-path="url(#clip0_3357_5934)">
<rect width="516" height="705" rx="24" fill="#041D31"/>
<g style="mix-blend-mode:overlay">
<path d="M257.25 490L-5 286.584V-33H520V286.584L257.25 490Z" fill="url(#paint0_linear_3357_5934)"/>
</g>
<g style="mix-blend-mode:overlay" opacity="0.5">
<path d="M-15.6307 391.884L215.977 571.158L215.979 832.133L-171.998 584.304L-15.6307 391.884Z" fill="url(#paint1_linear_3357_5934)"/>
</g>
<g style="mix-blend-mode:overlay" opacity="0.5">
<path d="M530.986 391.884L299.378 571.158L299.377 832.133L687.354 584.304L530.986 391.884Z" fill="url(#paint2_linear_3357_5934)"/>
</g>
<g style="mix-blend-mode:overlay" opacity="0.5">
<path d="M-15.6327 499.488L215.976 678.762L215.977 939.738L-172 691.908L-15.6327 499.488Z" fill="url(#paint3_linear_3357_5934)"/>
</g>
<g style="mix-blend-mode:overlay" opacity="0.5">
<path d="M530.988 499.488L299.38 678.762L299.379 939.738L687.356 691.908L530.988 499.488Z" fill="url(#paint4_linear_3357_5934)"/>
</g>
<path d="M39 37H160.943L175.377 62H253.023H334.65L349.582 37H477" stroke="url(#paint5_linear_3357_5934)" stroke-width="2"/>
<path d="M477 661.5H354.5L340 636H262H180L165 661.5H37" stroke="url(#paint6_linear_3357_5934)" stroke-width="2"/>
<path d="M475 36L475 210.006L449 230.602V341.398V457.875L475 479.182L475 661" stroke="url(#paint7_linear_3357_5934)" stroke-width="2"/>
<path d="M39 661L39 486.716L65 466.086L65 355.114L65 238.45L39 217.109L39 35" stroke="url(#paint8_linear_3357_5934)" stroke-width="2"/>
<g filter="url(#filter0_iiii_3357_5934)">
<path d="M315.566 306.376C319.351 306.567 321.432 306.589 325.271 306.376C326.489 306.376 327.855 306.576 329.49 306.376C331.235 306.161 332.584 305.625 333.849 305.25L332.021 293.576L328.927 276.135L325.692 260.382C325.692 260.382 323.845 253.572 322.457 249.271C321.187 245.336 320.667 243.041 318.94 239.285C317.358 235.843 316.286 233.979 314.158 230.846C312.312 228.128 311.059 226.759 308.955 224.235C306.116 220.829 304.725 218.683 301.36 215.796C298.296 213.167 296.271 212.056 292.779 210.029C289.486 208.118 287.584 207.109 284.06 205.669C281.583 204.657 280.146 204.205 277.589 203.419C273.641 202.206 271.376 201.675 267.322 200.887C264.592 200.356 263.057 200.034 260.289 199.762C257.935 199.53 256.605 199.522 254.241 199.48C252.813 199.455 250.585 199.48 250.585 199.48H247.911C247.911 199.48 251.522 200.82 253.398 202.012C255.274 203.204 256.753 204.247 258.461 205.669C260.65 207.492 261.975 208.4 264.087 210.31C265.384 211.483 266.07 212.185 267.322 213.405C269.215 215.247 270.037 215.862 272.104 218.187C273.32 219.554 274.557 221.178 275.761 222.828C277.361 225.021 278.224 226.665 279.84 229.158C281.465 231.664 282.567 233.744 284.06 236.331C285.791 239.331 286.919 241.974 288.139 244.208C289.358 246.441 292.358 254.897 292.358 254.897C292.358 254.897 294.07 260.957 295.453 264.743C296.378 267.274 296.964 268.118 297.984 271.072C298.733 273.24 298.839 273.604 299.672 276.698C300.112 278.332 300.981 280.816 301.36 282.465C301.751 284.166 302.345 286.825 302.345 286.825C302.345 286.825 302.745 288.888 303.048 290.201C303.611 292.642 304.082 293.971 304.736 296.389C305.625 299.682 306.986 304.828 306.986 304.828L308.955 305.813C308.955 305.813 312.978 306.245 315.566 306.376Z" fill="#F95C16"/>
<path d="M250.585 201.59C248.861 200.543 247.632 199.902 245.803 199.48C243.973 199.058 241.441 199.058 241.441 199.058L233.002 198.777H227.377C226.87 198.777 226.744 198.247 226.392 197.933C226.061 197.638 225.688 197.23 225.688 197.23C225.688 197.23 224.637 197.411 224.141 197.511C223.105 197.72 222.655 197.777 221.61 197.933C220.842 198.048 220.416 198.013 219.641 198.074C218.984 198.125 217.954 198.114 217.954 198.114H216.969L216.688 199.058L215.141 200.606L210.499 204.544C210.499 204.544 207.987 206.658 206.42 208.06C204.856 209.46 203.868 210.141 202.482 211.717C201.183 213.194 200.574 214.13 199.528 215.796C198.339 217.689 197.75 218.81 196.856 220.859C195.633 223.661 195.101 225.324 194.465 228.314C193.73 231.767 193.79 233.789 193.621 237.316C193.441 241.046 193.5 243.364 193.621 246.88C193.772 251.284 193.991 253.751 194.465 258.132C194.744 260.72 195.026 261.648 195.309 264.743C195.591 267.837 195.852 270.312 196.153 273.885C196.457 277.508 196.548 279.545 196.856 283.168C197.061 285.586 197.166 286.943 197.418 289.357C197.706 292.108 197.899 293.647 198.262 296.389C198.568 298.7 198.727 299.997 199.106 302.297C199.579 305.167 199.893 306.769 200.513 309.611C200.922 311.485 201.165 312.533 201.638 314.393C202.469 317.661 202.868 319.525 204.029 322.691C204.851 324.932 205.462 326.131 206.42 328.317C207.121 329.916 208.249 332.396 208.249 332.396L215.844 330.849C215.844 330.849 221.794 330 225.548 329.161C229.301 328.322 230.752 327.895 235.253 326.489C239.753 325.082 241.86 324.502 245.801 323.254C251.146 321.561 253.537 320.477 259.305 319.034C263.997 317.861 268.259 316.737 271.259 315.799C274.26 314.862 283.779 312.564 283.779 312.564C283.779 312.564 289.92 311.251 292.358 310.314C292.358 310.314 297.395 308.641 300.516 307.641C302.469 307.016 305.439 305.813 305.439 305.813C305.439 305.813 304.188 300.549 303.329 297.233C302.213 292.925 301.489 290.399 300.516 286.262C299.821 283.305 299.466 282.167 298.688 279.23C297.922 276.341 297.324 274.605 296.437 271.916C295.512 269.112 294.998 267.944 294.046 265.165C292.784 261.481 292.195 259.431 290.952 255.741C289.542 251.555 286.873 245.192 286.873 245.192C286.873 245.192 285.052 241.508 283.779 239.285C281.739 235.724 280.659 233.792 278.574 230.283C276.886 227.44 275.86 225.824 273.933 223.25C272.833 221.781 272.171 221.263 270.979 219.875C269.582 218.247 268.692 217.337 267.322 215.796C266.056 214.371 265.412 213.792 264.087 212.42C262.521 210.799 261.521 209.904 259.868 208.482C258.007 206.881 257.079 206.146 255.086 204.684C253.34 203.404 252.382 202.682 250.585 201.59Z" fill="#F95C16"/>
<path d="M196.293 339.991L191.933 341.679C191.933 341.679 192.888 343.275 193.62 344.211C194.553 345.405 196.293 347.024 196.293 347.024C196.293 347.024 198.439 348.734 199.808 349.837C200.964 350.768 202.762 352.228 202.762 352.228C202.762 352.228 206.104 355.138 208.249 356.729C211.813 359.372 213.738 360.709 217.39 363.058C220.94 365.342 223.025 366.528 226.646 368.589L226.813 368.684L227.13 368.864C231.484 371.342 234.026 372.789 238.628 375.014C244.057 377.638 247.132 379.101 252.834 381.062C257.95 382.821 260.884 383.695 266.196 384.718C267.455 384.961 268.157 385.133 269.431 385.281C272.05 385.586 273.264 385.703 275.901 385.703C277.823 385.703 281.105 385.281 281.105 385.281C281.105 385.281 283.865 385.047 285.606 384.718C288.016 384.264 289.028 383.968 291.654 383.031C294.279 382.093 299.615 380.161 299.952 379.936C300.29 379.711 305.344 377.686 307.829 376.701C310.314 375.717 312.78 374.032 315.987 372.2C318.229 370.92 319.503 370.06 321.753 368.684C325.603 366.33 327.782 365.043 331.599 362.636C335.195 360.369 337.073 358.877 340.741 356.729C344.282 354.655 346.336 353.605 350.024 351.806C353.914 349.909 356.074 348.758 360.151 347.305C363.065 346.267 364.652 345.617 367.746 345.055C369.422 344.75 370.137 344.773 372.107 345.055C372.107 345.055 373.063 345.169 373.654 345.336L375.201 346.18C375.201 346.18 376.487 346.623 377.311 346.602C378.301 346.577 378.796 346.313 379.842 346.039C381.812 345.525 383.739 344.742 385.75 345.055C387.198 345.28 387.592 345.501 388.703 346.18C389.614 346.736 390.274 347.046 391.095 347.727C391.931 348.422 392.923 349.837 392.923 350.118C392.923 350.118 392.131 350.324 391.657 350.54C391.254 350.724 390.907 350.727 390.673 351.103C390.411 351.522 390.673 352.369 390.673 352.369C390.673 352.369 391.813 352.561 392.501 352.369C393.338 352.135 393.908 351.806 394.33 351.103C394.751 350.399 395.185 349.499 395.033 348.43C394.891 347.432 394.461 346.911 393.767 346.18C391.095 343.367 385.75 340.554 385.75 340.554C385.75 340.554 377.55 334.969 372.107 331.693C367.197 328.738 364.348 327.244 359.307 324.52C356.519 323.013 354.871 322.32 352.134 320.722C349.082 318.939 347.491 317.743 344.539 315.799C342.223 314.274 340.832 313.548 338.632 311.861C337.27 310.817 336.337 310.268 335.256 309.048C334.65 308.364 333.849 307.641 333.849 307.641L328.927 308.626H318.096H310.782L305.439 309.611L301.36 310.314L290.107 313.549L281.105 315.799L269.431 319.034L259.726 321.707L247.911 325.645L237.925 328.317L228.923 330.849L223.438 332.396L215.844 334.225C214.015 334.834 210.273 336.053 209.935 336.053C209.598 336.053 207.263 336.803 206.138 337.178L200.513 338.022L196.293 339.991Z" fill="#F95C16"/>
<path fill-rule="evenodd" clip-rule="evenodd" d="M205.576 333.24L204.732 329.161C204.732 329.161 202.701 323.808 201.638 320.3C200.471 316.45 199.914 314.255 199.106 310.314C198.663 308.151 198.436 306.684 198.155 304.863C198.06 304.249 197.958 303.594 197.84 302.859L197.806 302.648C197.423 300.255 197.197 298.849 196.856 296.389C196.571 294.341 196.411 292.989 196.204 291.246L196.203 291.242C196.145 290.747 196.082 290.221 196.012 289.638C195.961 289.216 195.914 288.828 195.87 288.46C195.665 286.771 195.515 285.532 195.309 283.59C195.09 281.529 194.96 279.98 194.824 278.359C194.722 277.133 194.615 275.867 194.465 274.307C194.302 272.619 194.166 271.318 194.028 270.001L194.028 269.999C193.901 268.787 193.773 267.562 193.621 266.009C193.474 264.512 193.302 263.31 193.125 262.083C192.959 260.925 192.789 259.744 192.635 258.273C192.446 256.462 192.214 253.631 192.214 253.631C192.214 253.631 191.993 251.491 191.933 250.115C191.91 249.576 191.871 248.903 191.83 248.185C191.746 246.707 191.651 245.035 191.651 243.926V236.331L191.933 233.096C191.933 233.096 192.346 228.947 192.918 226.345C193.32 224.51 193.561 223.476 194.183 221.703C194.86 219.777 195.37 218.742 196.293 216.921C196.386 216.738 196.473 216.565 196.556 216.4C197.111 215.298 197.494 214.537 198.262 213.405C199.444 211.665 200.287 210.809 201.779 209.326C203.021 208.091 203.787 207.467 205.154 206.372C206.14 205.583 206.885 205.066 207.713 204.491C208.175 204.171 208.663 203.832 209.233 203.419C210.442 202.541 212.327 201.168 212.327 201.168C213.031 200.606 214.578 199.48 214.578 199.48L216.969 198.114L212.749 199.48L208.811 200.606C208.283 200.756 207.778 200.899 207.293 201.036L207.29 201.037C203.209 202.193 200.499 202.96 196.153 204.544C192.702 205.801 190.775 206.542 187.431 208.06C184.523 209.38 182.919 210.184 180.117 211.717C175.919 214.014 173.592 215.39 169.709 218.187C166.256 220.674 164.437 222.237 161.27 225.079C158.234 227.803 156.529 229.348 153.815 232.393C150.475 236.14 148.653 238.35 146.079 242.66C144.745 244.897 144.074 246.202 142.985 248.568C141.489 251.821 140.853 253.741 139.75 257.147C138.232 261.837 137.583 264.543 136.656 269.384C135.822 273.741 135.563 276.224 135.11 280.636C134.727 284.362 134.513 286.457 134.405 290.201C134.36 291.767 134.374 292.889 134.389 294.142C134.397 294.822 134.405 295.54 134.405 296.389C134.405 297.49 134.38 298.421 134.356 299.301C134.312 300.927 134.273 302.38 134.405 304.406C134.507 305.96 134.638 306.988 134.803 308.287C134.854 308.693 134.909 309.127 134.968 309.611C135.261 312.032 135.438 313.389 135.813 315.799C136.059 317.38 136.239 318.388 136.484 319.759C136.538 320.059 136.595 320.377 136.656 320.722C136.778 321.407 136.862 321.977 136.941 322.512C137.103 323.609 137.243 324.561 137.642 326.067C137.738 326.431 137.828 326.784 137.916 327.129C138.391 328.985 138.806 330.607 139.75 332.396C139.821 332.529 139.886 332.656 139.95 332.778C140.385 333.616 140.692 334.207 141.438 334.928C142.263 335.725 142.999 336.019 143.914 336.384C144.195 336.496 144.492 336.615 144.814 336.756C146.197 337.366 147.018 337.605 148.471 338.022C149.996 338.46 151.065 338.643 152.358 338.864C152.846 338.948 153.367 339.037 153.956 339.147C154.304 339.213 154.624 339.273 154.927 339.331C156.291 339.59 157.296 339.781 158.879 339.991C160.92 340.262 162.353 340.333 164.026 340.417C164.77 340.454 165.561 340.494 166.474 340.554C167.386 340.614 168.205 340.672 168.974 340.726C171.541 340.907 173.554 341.049 176.601 341.116C178.31 341.154 179.533 341.143 180.901 341.131L180.906 341.13C181.646 341.124 182.428 341.116 183.352 341.116H188.839L191.37 338.585L194.465 336.756L199.106 334.928L205.576 333.24Z" fill="#F95C16"/>
<path d="M208.249 332.396C208.249 332.396 207.121 329.916 206.42 328.317C205.462 326.131 204.851 324.932 204.029 322.691C202.868 319.525 202.469 317.661 201.638 314.393C201.165 312.533 200.922 311.485 200.513 309.611C199.893 306.769 199.579 305.167 199.106 302.297C198.727 299.997 198.568 298.7 198.262 296.389C197.899 293.647 197.706 292.108 197.418 289.357C197.166 286.943 197.061 285.586 196.856 283.168C196.548 279.545 196.457 277.508 196.153 273.885C195.852 270.312 195.591 267.837 195.309 264.743C195.026 261.648 194.744 260.72 194.465 258.132C193.991 253.751 193.772 251.284 193.621 246.88C193.5 243.364 193.441 241.046 193.621 237.316C193.79 233.789 193.73 231.767 194.465 228.314C195.101 225.324 195.633 223.661 196.856 220.859C197.75 218.81 198.339 217.689 199.528 215.796C200.574 214.13 201.183 213.194 202.482 211.717C203.868 210.141 204.856 209.46 206.42 208.06C207.987 206.658 210.499 204.544 210.499 204.544L215.141 200.606L216.688 199.058L216.969 198.114L214.578 199.48C214.578 199.48 213.031 200.606 212.327 201.168C212.327 201.168 210.442 202.541 209.233 203.419C208.663 203.832 208.175 204.171 207.713 204.491C206.885 205.066 206.14 205.583 205.154 206.372C203.787 207.467 203.021 208.091 201.779 209.326C200.287 210.809 199.444 211.665 198.262 213.405C197.494 214.537 197.111 215.298 196.556 216.4C196.473 216.565 196.386 216.738 196.293 216.921C195.37 218.742 194.86 219.777 194.183 221.703C193.561 223.476 193.32 224.51 192.918 226.345C192.346 228.947 191.933 233.096 191.933 233.096L191.651 236.331V243.926C191.651 245.035 191.746 246.707 191.83 248.185C191.871 248.903 191.91 249.576 191.933 250.115C191.993 251.491 192.214 253.631 192.214 253.631C192.214 253.631 192.446 256.462 192.635 258.273C192.789 259.744 192.959 260.925 193.125 262.083C193.302 263.31 193.474 264.512 193.621 266.009C193.773 267.562 193.901 268.787 194.028 269.999L194.028 270.001C194.166 271.318 194.302 272.619 194.465 274.307C194.615 275.867 194.722 277.133 194.824 278.359C194.96 279.98 195.09 281.529 195.309 283.59C195.515 285.532 195.665 286.771 195.87 288.46C195.914 288.828 195.961 289.216 196.012 289.638C196.082 290.221 196.145 290.747 196.203 291.242L196.204 291.246C196.411 292.989 196.571 294.341 196.856 296.389C197.197 298.849 197.423 300.255 197.806 302.648L197.84 302.859C197.958 303.594 198.06 304.249 198.155 304.863C198.436 306.684 198.663 308.151 199.106 310.314C199.914 314.255 200.471 316.45 201.638 320.3C202.701 323.808 204.732 329.161 204.732 329.161L205.576 333.24L208.249 332.396Z" fill="#FA7D45"/>
<path fill-rule="evenodd" clip-rule="evenodd" d="M166.053 219.312C166.053 219.312 161.085 223.421 158.177 226.345C156.23 228.302 153.394 231.549 153.394 231.549C153.394 231.549 149.676 235.769 147.628 238.722C145.104 242.361 143.852 244.544 142.002 248.568C139.773 253.412 137.642 261.508 137.642 261.508C137.642 261.508 135.818 267.62 135.11 271.635C134.191 276.846 133.996 278.598 133.562 283.871C133.173 288.595 133 297.233 133 297.233C133 297.233 133.378 305.997 133.985 311.58C134.524 316.545 134.649 319.381 135.813 324.238C136.671 327.82 137.538 331.678 138.626 333.24C139.715 334.802 142.002 336.756 142.002 336.756C142.002 336.756 145.684 338.378 148.471 339.147C150.714 339.767 155.644 340.554 155.644 340.554L162.537 341.116C162.537 341.116 171.445 341.679 174.211 341.679L177.867 341.96L181.805 342.242H187.15H190.525L188.839 341.116H183.352C182.428 341.116 181.646 341.124 180.906 341.13L180.901 341.131C179.533 341.143 178.31 341.154 176.601 341.116C173.554 341.049 171.541 340.907 168.974 340.726C168.205 340.672 167.386 340.614 166.474 340.554C165.561 340.494 164.77 340.454 164.026 340.417C162.353 340.333 160.92 340.262 158.879 339.991C157.296 339.781 156.291 339.59 154.927 339.331C154.624 339.273 154.304 339.213 153.956 339.147C153.367 339.037 152.846 338.948 152.358 338.864C151.065 338.643 149.996 338.46 148.471 338.022C147.018 337.605 146.197 337.366 144.814 336.756C144.492 336.615 144.195 336.496 143.914 336.384C142.999 336.019 142.263 335.725 141.438 334.928C140.692 334.207 140.385 333.616 139.95 332.778C139.886 332.656 139.821 332.529 139.75 332.396C138.806 330.607 138.391 328.985 137.916 327.129C137.828 326.784 137.738 326.431 137.642 326.067C137.243 324.561 137.103 323.609 136.941 322.512C136.862 321.977 136.778 321.407 136.656 320.722C136.595 320.377 136.538 320.059 136.484 319.759C136.239 318.388 136.059 317.38 135.813 315.799C135.438 313.389 135.261 312.032 134.968 309.611C134.909 309.127 134.854 308.693 134.803 308.287C134.638 306.988 134.507 305.96 134.405 304.406C134.273 302.38 134.312 300.927 134.356 299.301C134.38 298.421 134.405 297.49 134.405 296.389C134.405 295.54 134.397 294.822 134.389 294.142C134.374 292.889 134.36 291.767 134.405 290.201C134.513 286.457 134.727 284.362 135.11 280.636C135.563 276.224 135.822 273.741 136.656 269.384C137.583 264.543 138.232 261.837 139.75 257.147C140.853 253.741 141.489 251.821 142.985 248.568C144.074 246.202 144.745 244.897 146.079 242.66C148.653 238.35 150.475 236.14 153.815 232.393C156.529 229.348 158.234 227.803 161.27 225.079C164.437 222.237 166.256 220.674 169.709 218.187C173.592 215.39 175.919 214.014 180.117 211.717C182.919 210.184 184.523 209.38 187.431 208.06C190.775 206.542 192.702 205.801 196.153 204.544C200.499 202.96 203.209 202.193 207.29 201.037L207.293 201.036C207.778 200.899 208.283 200.756 208.811 200.606L212.749 199.48L216.969 198.114H217.954C217.954 198.114 218.984 198.125 219.641 198.074C220.416 198.013 220.842 198.048 221.61 197.933C222.655 197.777 223.105 197.72 224.141 197.511C224.637 197.411 225.688 197.23 225.688 197.23C225.688 197.23 226.061 197.638 226.392 197.933C226.744 198.247 226.87 198.777 227.377 198.777H233.002L241.441 199.058C241.441 199.058 243.973 199.058 245.803 199.48C247.632 199.902 248.861 200.543 250.585 201.59C252.382 202.682 253.34 203.404 255.086 204.684C257.079 206.146 258.007 206.881 259.868 208.482C261.521 209.904 262.521 210.799 264.087 212.42C265.412 213.792 266.056 214.371 267.322 215.796C268.692 217.337 269.582 218.247 270.979 219.875C272.171 221.263 272.833 221.781 273.933 223.25C275.86 225.824 276.886 227.44 278.574 230.283C280.659 233.792 281.739 235.724 283.779 239.285C285.052 241.508 286.873 245.192 286.873 245.192C286.873 245.192 289.542 251.555 290.952 255.741C292.195 259.431 292.784 261.481 294.046 265.165C294.998 267.944 295.512 269.112 296.437 271.916C297.324 274.605 297.922 276.341 298.688 279.23C299.466 282.167 299.821 283.305 300.516 286.262C301.489 290.399 302.213 292.925 303.329 297.233C304.188 300.549 305.439 305.813 305.439 305.813C305.439 305.813 302.469 307.016 300.516 307.641C297.395 308.641 292.358 310.314 292.358 310.314C289.92 311.251 283.779 312.564 283.779 312.564C283.779 312.564 274.26 314.862 271.259 315.799C268.259 316.737 263.997 317.861 259.305 319.034C253.537 320.477 251.146 321.561 245.801 323.254C241.86 324.502 239.753 325.082 235.253 326.489C230.752 327.895 229.301 328.322 225.548 329.161C221.794 330 215.844 330.849 215.844 330.849L208.249 332.396L205.576 333.24L199.106 334.928L194.465 336.756L191.37 338.585L188.839 341.116L190.525 342.242L191.933 341.679L196.293 339.991L200.513 338.022L206.138 337.178C207.263 336.803 209.598 336.053 209.935 336.053C210.273 336.053 214.015 334.834 215.844 334.225L223.438 332.396L228.923 330.849L237.925 328.317L247.911 325.645L259.726 321.707L269.431 319.034L281.105 315.799L290.107 313.549L301.36 310.314L305.439 309.611L310.782 308.626H318.096H328.927L333.849 307.641L335.256 307.219L334.554 305.25H333.849C332.584 305.625 331.235 306.161 329.49 306.376C327.855 306.576 326.489 306.376 325.271 306.376C321.432 306.589 319.351 306.567 315.566 306.376C312.978 306.245 308.955 305.813 308.955 305.813L306.986 304.828C306.986 304.828 305.625 299.682 304.736 296.389C304.082 293.971 303.611 292.642 303.048 290.201C302.745 288.888 302.345 286.825 302.345 286.825C302.345 286.825 301.751 284.166 301.36 282.465C300.981 280.816 300.112 278.332 299.672 276.698C298.839 273.604 298.733 273.24 297.984 271.072C296.964 268.118 296.378 267.274 295.453 264.743C294.07 260.957 292.358 254.897 292.358 254.897C292.358 254.897 289.358 246.441 288.139 244.208C286.919 241.974 285.791 239.331 284.06 236.331C282.567 233.744 281.465 231.664 279.84 229.158C278.224 226.665 277.361 225.021 275.761 222.828C274.557 221.178 273.32 219.554 272.104 218.187C270.037 215.862 269.215 215.247 267.322 213.405C266.07 212.185 265.384 211.483 264.087 210.31C261.975 208.4 260.65 207.492 258.461 205.669C256.753 204.247 255.274 203.204 253.398 202.012C251.522 200.82 247.911 199.48 247.911 199.48H250.585C250.585 199.48 252.813 199.455 254.241 199.48C256.605 199.522 257.935 199.53 260.289 199.762C263.057 200.034 264.592 200.356 267.322 200.887C271.376 201.675 273.641 202.206 277.589 203.419C280.146 204.205 281.583 204.657 284.06 205.669C287.584 207.109 289.486 208.118 292.779 210.029C296.271 212.056 298.296 213.167 301.36 215.796C304.725 218.683 306.116 220.829 308.955 224.235C311.059 226.759 312.312 228.128 314.158 230.846C316.286 233.979 317.358 235.843 318.94 239.285C320.667 243.041 321.187 245.336 322.457 249.271C323.845 253.572 325.692 260.382 325.692 260.382L328.927 276.135L332.021 293.576L333.849 305.25H334.554C334.554 305.25 333.477 298.129 332.725 293.576C331.553 286.475 330.874 282.495 329.49 275.432C328.314 269.427 326.255 260.101 326.255 260.101C326.255 260.101 324.481 253.04 323.161 248.568C321.986 244.586 321.279 242.539 319.645 238.722C318.097 235.107 317.042 233.134 314.863 229.861C313.127 227.255 311.967 225.918 309.94 223.532C306.921 219.979 305.225 217.932 301.641 214.952C298.666 212.478 296.805 211.312 293.483 209.326C289.941 207.208 287.877 206.111 284.06 204.544C280.219 202.967 277.953 202.347 273.933 201.309C267.148 199.556 263.193 199.097 256.211 198.496C250.79 198.029 242.286 198.074 242.286 198.074H233.002L227.377 197.792V197.089C227.377 197.089 227.302 195.218 226.674 194.276C226.221 193.597 225.821 193.3 225.127 192.87C224.433 192.439 223.013 192.191 221.61 192.026C220.485 191.893 216.547 192.307 215.844 192.448C214.838 192.649 213.312 193.151 213.312 193.151C213.312 193.151 212.327 193.714 212.327 194.558C212.327 195.401 212.187 196.105 212.468 196.949L212.749 198.074L208.53 199.566L200.513 202.012C200.513 202.012 191.836 205.104 186.448 207.497C181.688 209.612 174.492 213.405 174.492 213.405L166.053 219.312ZM215.844 193.292C215.844 193.292 214.82 193.699 214.578 194.276C214.387 194.732 214.578 195.542 214.578 195.542C214.578 195.542 215.101 196.24 215.562 196.527C216.276 196.97 216.835 196.872 217.671 196.949C219.212 197.089 220.072 197.117 221.61 196.949C222.599 196.84 224.141 196.527 224.141 196.527C224.141 196.527 225.11 196.252 225.407 195.823C225.757 195.319 225.127 194.276 225.127 194.276C225.127 194.276 224.249 193.546 223.58 193.292C222.853 193.016 222.384 193.082 221.61 193.01C220.188 192.879 219.377 192.891 217.954 193.01C217.125 193.08 215.844 193.292 215.844 193.292Z" fill="#FA7D45"/>
<path d="M333.849 307.641C333.849 307.641 334.65 308.364 335.256 309.048C336.337 310.268 337.27 310.817 338.632 311.861C340.832 313.548 342.223 314.274 344.539 315.799C347.491 317.743 349.082 318.939 352.134 320.722C354.871 322.32 356.519 323.013 359.307 324.52C364.348 327.244 367.197 328.738 372.107 331.693C377.55 334.969 385.75 340.554 385.75 340.554C385.75 340.554 391.095 343.367 393.767 346.18C394.461 346.911 394.891 347.432 395.033 348.43C395.185 349.499 394.751 350.399 394.33 351.103C393.908 351.806 393.338 352.135 392.501 352.369C391.813 352.561 390.673 352.369 390.673 352.369C390.673 352.369 388.685 352.57 387.438 352.369C385.997 352.136 385.284 351.626 383.921 351.103L383.678 351.009C382.217 350.448 381.325 350.105 379.842 349.415C378.84 348.948 378.219 348.779 377.311 348.149C376.384 347.507 375.201 346.18 375.201 346.18L373.654 345.336C373.063 345.169 372.107 345.055 372.107 345.055C370.137 344.773 369.422 344.75 367.746 345.055C364.652 345.617 363.065 346.267 360.151 347.305C356.074 348.758 353.914 349.909 350.024 351.806C346.336 353.605 344.282 354.655 340.741 356.729C337.073 358.877 335.195 360.369 331.599 362.636C327.782 365.043 325.603 366.33 321.753 368.684C319.503 370.06 318.229 370.92 315.987 372.2C312.78 374.032 310.314 375.717 307.829 376.701C305.344 377.686 300.29 379.711 299.952 379.936C299.615 380.161 294.279 382.093 291.654 383.031C289.028 383.968 288.016 384.264 285.606 384.718C283.865 385.047 281.105 385.281 281.105 385.281C281.105 385.281 277.823 385.703 275.901 385.703C273.264 385.703 272.05 385.586 269.431 385.281C268.157 385.133 267.455 384.961 266.196 384.718C260.884 383.695 257.95 382.821 252.834 381.062C247.132 379.101 244.057 377.638 238.628 375.014C234.026 372.789 231.484 371.342 227.13 368.864L226.813 368.684L226.646 368.589C223.025 366.528 220.94 365.342 217.39 363.058C213.738 360.709 211.813 359.372 208.249 356.729C206.104 355.138 202.762 352.228 202.762 352.228C202.762 352.228 200.964 350.768 199.808 349.837C198.439 348.734 196.293 347.024 196.293 347.024C196.293 347.024 194.553 345.405 193.62 344.211C192.888 343.275 191.933 341.679 191.933 341.679L190.525 342.242C190.525 342.242 193.636 345.984 195.87 348.149C198.194 350.4 199.147 351.008 201.638 353.072C203.983 355.015 205.592 356.426 208.249 358.417C211.699 361.002 213.767 362.269 217.39 364.605C221.285 367.117 223.478 368.52 227.517 370.794C231.028 372.771 233.032 373.822 236.659 375.576C239.536 376.967 241.167 377.715 244.114 378.952C247.208 380.251 248.96 380.946 252.131 382.046C254.905 383.009 256.456 383.586 259.305 384.297C262.232 385.026 263.912 385.284 266.899 385.703C268.269 385.895 269.036 386.021 270.415 386.125C272.771 386.303 274.102 386.125 276.464 386.125C278.88 386.125 280.16 385.981 282.512 385.703C284.834 385.428 288.419 384.718 288.419 384.718C288.419 384.718 293.238 383.143 296.295 382.046C299.503 380.896 301.313 380.275 304.453 378.952C307.352 377.73 308.994 377.062 311.767 375.576C314.025 374.366 315.182 373.496 317.393 372.2C320.173 370.571 321.796 369.767 324.566 368.122C327.345 366.471 328.832 365.43 331.599 363.761C334.866 361.791 340.038 358.839 340.038 358.839C340.038 358.839 344.535 356.099 347.493 354.478C350.789 352.672 352.652 351.676 356.072 350.118C358.672 348.934 360.09 348.133 362.824 347.305C364.711 346.733 365.668 346.404 367.606 346.039C368.972 345.782 369.856 345.617 371.263 345.617C372.062 345.617 372.496 345.867 373.232 346.18C374.255 346.615 374.693 347.117 375.623 347.727C376.616 348.379 377.123 348.826 378.155 349.415C379.264 350.048 379.939 350.308 381.108 350.821C382.621 351.486 383.477 351.851 385.047 352.369C386.186 352.744 386.825 352.97 388 353.213C389.462 353.514 391.798 353.634 391.798 353.634C391.798 353.634 393.199 353.547 393.908 353.072C394.457 352.704 394.78 352.337 395.173 351.806C395.701 351.095 395.964 350.701 396.158 349.837C396.302 349.194 396.335 348.784 396.158 348.149C395.966 347.459 395.568 347.135 395.173 346.602C394.709 345.974 393.908 345.336 393.908 345.336L388.703 341.398L381.812 336.897L371.685 330.427L353.259 319.315L341.585 311.861L335.256 307.219L333.849 307.641Z" fill="#FA7D45"/>
<path d="M379.842 346.039C378.796 346.313 378.301 346.577 377.311 346.602C376.487 346.623 375.201 346.18 375.201 346.18C375.201 346.18 376.384 347.507 377.311 348.149C378.219 348.779 378.84 348.948 379.842 349.415C381.325 350.105 382.217 350.448 383.678 351.009L383.921 351.103C385.284 351.626 385.997 352.136 387.438 352.369C388.685 352.57 390.673 352.369 390.673 352.369C390.673 352.369 390.411 351.522 390.673 351.103C390.907 350.727 391.254 350.724 391.657 350.54C392.131 350.324 392.923 350.118 392.923 350.118C392.923 349.837 391.931 348.422 391.095 347.727C390.274 347.046 389.614 346.736 388.703 346.18C387.592 345.501 387.198 345.28 385.75 345.055C383.739 344.742 381.812 345.525 379.842 346.039Z" fill="#FA7D45"/>
<path d="M214.578 194.276C214.82 193.699 215.844 193.292 215.844 193.292C215.844 193.292 217.125 193.08 217.954 193.01C219.377 192.891 220.188 192.879 221.61 193.01C222.384 193.082 222.853 193.016 223.58 193.292C224.249 193.546 225.127 194.276 225.127 194.276C225.127 194.276 225.757 195.319 225.407 195.823C225.11 196.252 224.141 196.527 224.141 196.527C224.141 196.527 222.599 196.84 221.61 196.949C220.072 197.117 219.212 197.089 217.671 196.949C216.835 196.872 216.276 196.97 215.562 196.527C215.101 196.24 214.578 195.542 214.578 195.542C214.578 195.542 214.387 194.732 214.578 194.276Z" fill="#FA7D45"/>
</g>
<path d="M89.3934 101.256V119.813C100.691 118.767 110.979 108.877 111.914 97.7705L92.1101 97.7705C90.984 97.7705 89.3934 100.153 89.3934 101.256Z" fill="#F95C16"/>
<path d="M81.4672 97.7412H65.0237C65.9589 108.848 74.931 118.658 86.2287 119.704L86.2286 102.793C85.918 100.055 83.9469 97.7412 81.4672 97.7412Z" fill="#F95C16"/>
<path d="M89.3934 74.0305V87.0991C89.3934 90.55 91.1086 95.0569 94.6307 95.0569H111.914C110.979 83.9501 100.691 75.0764 89.3934 74.0305Z" fill="#F95C16"/>
<path d="M86.2287 90.6663V74.0303C74.931 75.0761 65.9593 83.9501 65.0241 95.0569H84.8283C86.374 95.0569 86.3088 93.2131 86.2502 91.558C86.2393 91.2498 86.2287 90.9482 86.2287 90.6663Z" fill="#F95C16"/>
<path fill-rule="evenodd" clip-rule="evenodd" d="M86.2286 102.793C86.8163 107.975 86.2287 119.704 86.2287 119.704L86.2286 102.793Z" fill="#F95C16"/>
</g>
<defs>
<filter id="filter0_iiii_3357_5934" x="133" y="192" width="263.279" height="194.204" filterUnits="userSpaceOnUse" color-interpolation-filters="sRGB">
<feFlood flood-opacity="0" result="BackgroundImageFix"/>
<feBlend mode="normal" in="SourceGraphic" in2="BackgroundImageFix" result="shape"/>
<feColorMatrix in="SourceAlpha" type="matrix" values="0 0 0 0 0 0 0 0 0 0 0 0 0 0 0 0 0 0 127 0" result="hardAlpha"/>
<feOffset/>
<feGaussianBlur stdDeviation="11.2521"/>
<feComposite in2="hardAlpha" operator="arithmetic" k2="-1" k3="1"/>
<feColorMatrix type="matrix" values="0 0 0 0 0 0 0 0 0 0 0 0 0 0 0 0 0 0 0.25 0"/>
<feBlend mode="hue" in2="shape" result="effect1_innerShadow_3357_5934"/>
<feColorMatrix in="SourceAlpha" type="matrix" values="0 0 0 0 0 0 0 0 0 0 0 0 0 0 0 0 0 0 127 0" result="hardAlpha"/>
<feOffset/>
<feGaussianBlur stdDeviation="5.62606"/>
<feComposite in2="hardAlpha" operator="arithmetic" k2="-1" k3="1"/>
<feColorMatrix type="matrix" values="0 0 0 0 0 0 0 0 0 0 0 0 0 0 0 0 0 0 0.25 0"/>
<feBlend mode="color-burn" in2="effect1_innerShadow_3357_5934" result="effect2_innerShadow_3357_5934"/>
<feColorMatrix in="SourceAlpha" type="matrix" values="0 0 0 0 0 0 0 0 0 0 0 0 0 0 0 0 0 0 127 0" result="hardAlpha"/>
<feOffset/>
<feGaussianBlur stdDeviation="4.21955"/>
<feComposite in2="hardAlpha" operator="arithmetic" k2="-1" k3="1"/>
<feColorMatrix type="matrix" values="0 0 0 0 0 0 0 0 0 0 0 0 0 0 0 0 0 0 0.25 0"/>
<feBlend mode="overlay" in2="effect2_innerShadow_3357_5934" result="effect3_innerShadow_3357_5934"/>
<feColorMatrix in="SourceAlpha" type="matrix" values="0 0 0 0 0 0 0 0 0 0 0 0 0 0 0 0 0 0 127 0" result="hardAlpha"/>
<feOffset/>
<feGaussianBlur stdDeviation="2.81303"/>
<feComposite in2="hardAlpha" operator="arithmetic" k2="-1" k3="1"/>
<feColorMatrix type="matrix" values="0 0 0 0 0 0 0 0 0 0 0 0 0 0 0 0 0 0 0.25 0"/>
<feBlend mode="darken" in2="effect3_innerShadow_3357_5934" result="effect4_innerShadow_3357_5934"/>
</filter>
<linearGradient id="paint0_linear_3357_5934" x1="257.5" y1="-33" x2="257.5" y2="490" gradientUnits="userSpaceOnUse">
<stop stop-color="#D9D9D9"/>
<stop offset="1" stop-color="#0A3A61"/>
</linearGradient>
<linearGradient id="paint1_linear_3357_5934" x1="166.226" y1="530.728" x2="5.48316" y2="728.532" gradientUnits="userSpaceOnUse">
<stop stop-color="#D9D9D9"/>
<stop offset="1" stop-color="#041D31"/>
</linearGradient>
<linearGradient id="paint2_linear_3357_5934" x1="349.13" y1="530.728" x2="509.872" y2="728.532" gradientUnits="userSpaceOnUse">
<stop stop-color="#D9D9D9"/>
<stop offset="1" stop-color="#041D31"/>
</linearGradient>
<linearGradient id="paint3_linear_3357_5934" x1="166.224" y1="638.332" x2="5.48121" y2="836.136" gradientUnits="userSpaceOnUse">
<stop stop-color="#D9D9D9"/>
<stop offset="1" stop-color="#041D31"/>
</linearGradient>
<linearGradient id="paint4_linear_3357_5934" x1="349.132" y1="638.332" x2="509.874" y2="836.136" gradientUnits="userSpaceOnUse">
<stop stop-color="#D9D9D9"/>
<stop offset="1" stop-color="#041D31"/>
</linearGradient>
<linearGradient id="paint5_linear_3357_5934" x1="39" y1="49.5" x2="477" y2="49.5" gradientUnits="userSpaceOnUse">
<stop stop-color="#FF9D72"/>
<stop offset="1" stop-color="#083356"/>
</linearGradient>
<linearGradient id="paint6_linear_3357_5934" x1="477" y1="648.75" x2="37" y2="648.75" gradientUnits="userSpaceOnUse">
<stop stop-color="#FF9D72"/>
<stop offset="1" stop-color="#083356"/>
</linearGradient>
<linearGradient id="paint7_linear_3357_5934" x1="462" y1="36" x2="462" y2="661" gradientUnits="userSpaceOnUse">
<stop stop-color="#FF9D72"/>
<stop offset="1" stop-color="#083356"/>
</linearGradient>
<linearGradient id="paint8_linear_3357_5934" x1="52" y1="661" x2="52" y2="35" gradientUnits="userSpaceOnUse">
<stop offset="0.2" stop-color="#FF9D72"/>
<stop offset="1" stop-color="#083356"/>
</linearGradient>
<clipPath id="clip0_3357_5934">
<rect width="516" height="705" rx="24" fill="white"/>
</clipPath>
</defs>
</svg>